<svg xmlns="http://www.w3.org/2000/svg" width="512" height="512" viewBox="0 0 512 512"><defs><linearGradient id="bg" x1="0" y1="0" x2="1" y2="1"><stop stop-color="#fffaf0"/><stop offset="1" stop-color="#e6d7b8"/></linearGradient></defs><rect width="512" height="512" rx="112" fill="url(#bg)"/><rect x="24" y="24" width="464" height="464" rx="94" fill="none" stroke="#d6c39b" stroke-width="5"/><g fill="none" stroke="#876b32" stroke-linecap="round" stroke-linejoin="round"><path d="M112 232 256 106l144 126" stroke-width="29"/><path d="M151 218v188h210V218" stroke-width="29"/><path d="M256 354c-62-39-83-65-83-96 0-26 20-45 45-45 17 0 31 8 38 22 8-14 22-22 39-22 25 0 45 19 45 45 0 31-21 57-84 96Z" stroke-width="23"/></g></svg>