<svg xmlns="http://www.w3.org/2000/svg" viewBox="0 0 512 512">
<defs><linearGradient id="g" x1="80" y1="30" x2="430" y2="480" gradientUnits="userSpaceOnUse"><stop stop-color="#202734"/><stop offset="1" stop-color="#080B10"/></linearGradient><filter id="s" x="-20%" y="-20%" width="140%" height="140%"><feDropShadow dx="0" dy="18" stdDeviation="18" flood-opacity=".25"/></filter></defs>
<rect x="18" y="18" width="476" height="476" rx="112" fill="url(#g)" filter="url(#s)"/>
<path d="M114 246 256 124l142 122" fill="none" stroke="#fff" stroke-width="28" stroke-linecap="round" stroke-linejoin="round"/>
<path d="M148 228v152h216V228" fill="none" stroke="#fff" stroke-width="28" stroke-linejoin="round"/>
<path d="M256 335c-57-35-75-59-75-88 0-25 19-43 43-43 15 0 28 7 32 19 5-12 18-19 33-19 24 0 43 18 43 43 0 29-19 53-76 88Z" fill="none" stroke="#64D2FF" stroke-width="25" stroke-linejoin="round"/>
</svg>
